{"title":"Formula1.2014.Russia.Race.DANISH.720p.HDTV-pir8","uid":11198293,"size":3815459646,"categoryP":"video","categoryS":"hd___tv_shows","magnet":"?xt=urn:btih:0f03e4bae6b2074d684cfc5902e7ac2063e5e2f2&amp;dn=Formula1.2014.Russia.Race.DANISH.720p.HDTV-pir8&amp;tr=udp%3A%2F%2Ftracker.openbittorrent.com%3A80&amp;tr=udp%3A%2F%2Fopen.demonii.com%3A1337&amp;tr=udp%3A%2F%2Ftracker.coppersurfer.tk%3A6969&amp;tr=udp%3A%2F%2Fexodus.desync.com%3A6969","seeders":1,"leechers":0,"uploader":"z97","files":-1,"time":1413131147,"description":"                        .:L5ZOMOZ1L:                        \n                    iSB@B@B@B@B@B@B@@@MF:                   \n                vM@B@@@O5r:.    ..:rFM@B@B@M7               \n             rB@B@BL.                   ,1@@B@Mi            \n           L@B@Br                           vB@B@7          \n         vB@B0     @B:                        .8@@@r        \n        @B@0       B@:                          .O@@@       \n      7@B@,        @@ur1P8OB@@B@MMZPu7,           :@B@i     \n     S@BG       :jNB@@@B@B@B@B@B@B@@@B@B@0r         BB@j    \n    P@B1           @B: ,j@B@MMOOOMOMOMM@B@B@0.       NB@U   \n   j@B1            B@,    .O@BM8O8OOOOOOMOBB@BX       NB@7  \n  :@BO             @Bi      7@BMOOOOOO8OOOOMM@B@       @B@  \n  @B@              B@:       v@MM8O8O8O8O8O8OOBB8       @B@ \n :B@7              @Bi        B@OOOO8OOO8OOMOOO@B,      u@B \n Z@B               B@:        0BM8O8OOO8OOOOO8MM@F       @@L\n @@0               @Bi        0@OOOOOO8O8OOOOO8MBM       MBZ\njB@r               B@:        @BM8O8O8O8O8O8O8OM@O       j@8\n0@B:               @Bi       rBM8O8O8O8MOMOOOMO@Bi       7BM\nEB@:               B@:      iB@OM8O8O8O8MOMOBB@@v        r@O\nL@Bv               @@:     ZB@OMOMOMOMOMM@@@B@P          UBO\n.B@0               B@.  :Z@BBMMMBM@B@B@B@B@ki            O@N\n Z@@               @Brr@@@B@@@B@@@B@B0jr.                @BL\n ,@BL              B@@@B@B@B81vi,                       5B@ \n  B@@             .@B@BOr.                              B@M \n  ,B@O            @B@G                                 B@B  \n   LB@S           B@2                                 Z@Br  \n    SB@F          @@                                 Z@@Y   \n     1@@O         BL                                B@Bv    \n      rB@@:       M7                              rB@B:     \n        B@BM      ,J                            .@@@O       \n         r@B@Z,    .                          :M@@@:        \n           vB@B@L                           Y@@@Br          \n             :M@@B@2:                   ik@@@@8:            \n                iOB@@@@B5v::.. ..::vFBB@@@BZi               \n                    .;5O@B@B@Z97@B@B@O1i.                   \n\n\n\n                       RELEASE NOTES                        \n------------------------------------------------------------\n\n       Formula 1 2014 Russia - Race with DANISH speak\n\t\t\t\nYear                           : 2014\nAirdate                        : 10.11.2014\nGenre                          : Motorsport\nSource                         : DVB-C / 1080i\nSubs                           : none\n\nTested and working on          : WD TV Live\n\n\n   Formula 1 race from Sochi in Russia, with danish commentary.\n                    (commercials cut out)\n\n\n                       RELEASE INFORMATION                  \n------------------------------------------------------------\n\n\nVideo\nID                             : 1\nFormat                         : AVC\nFormat/Info                    : Advanced Video Codec\nFormat profile                 : &lt;a class=&quot;__cf_email__&quot; href=&quot;/cdn-cgi/l/email-protection&quot; data-cfemail=&quot;e7af8e808fa7abd3c9d5&quot;&gt;[email&amp;#160;protected]&lt;/a&gt;&lt;script cf-hash='f9e31' type=&quot;text/javascript&quot;&gt;\n/* &lt;![CDATA[ */!function(){try{var t=&quot;currentScript&quot;in document?document.currentScript:function(){for(var t=document.getElementsByTagName(&quot;script&quot;),e=t.length;e--;)if(t[e].getAttribute(&quot;cf-hash&quot;))return t[e]}();if(t&amp;&amp;t.previousSibling){var e,r,n,i,c=t.previousSibling,a=c.getAttribute(&quot;data-cfemail&quot;);if(a){for(e=&quot;&quot;,r=parseInt(a.substr(0,2),16),n=2;a.length-n;n+=2)i=parseInt(a.substr(n,2),16)^r,e+=String.fromCharCode(i);e=document.createTextNode(e),c.parentNode.replaceChild(e,c)}}}catch(u){}}();/* ]]&gt; */&lt;/script&gt;\nFormat settings, CABAC         : Yes\nFormat settings, ReFrames      : 5 frames\nCodec ID                       : V_MPEG4/ISO/AVC\nDuration                       : 1h 42mn\nBit rate                       : 4 490 Kbps\nWidth                          : 1 280 pixels\nHeight                         : 720 pixels\nDisplay aspect ratio           : 16:9\nFrame rate mode                : Constant\nFrame rate                     : 25.000 fps\nColor space                    : YUV\nChroma subsampling             : 4:2:0\nBit depth                      : 8 bits\nScan type                      : Progressive\nBits/(Pixel*Frame)             : 0.195\nStream size                    : 3.21 GiB (90%)\nWriting library                : x264 core 142 r2479 dd79a61\nDefault                        : Yes\nForced                         : No\n\n\nAudio\nID                             : 2\nFormat                         : AC-3\nFormat/Info                    : Audio Coding 3\nMode extension                 : CM (complete main)\nFormat settings, Endianness    : Big\nCodec ID                       : A_AC3\nDuration                       : 1h 42mn\nBit rate mode                  : Constant\nBit rate                       : 384 Kbps\nChannel(s)                     : 6 channels\nChannel positions              : Front: L C R, Side: L R, LFE\nSampling rate                  : 48.0 KHz\nBit depth                      : 16 bits\nCompression mode               : Lossy\nStream size                    : 281 MiB (8%)\nTitle                          : Surround\nLanguage                       : Danish\nDefault                        : Yes\nForced                         : No","torrent":{"xt":"urn:btih:0f03e4bae6b2074d684cfc5902e7ac2063e5e2f2","amp;dn":"Formula1.2014.Russia.Race.DANISH.720p.HDTV-pir8","amp;tr":["udp%3A%2F%2Ftracker.openbittorrent.com%3A80","udp%3A%2F%2Fopen.demonii.com%3A1337","udp%3A%2F%2Ftracker.coppersurfer.tk%3A6969","udp%3A%2F%2Fexodus.desync.com%3A6969"],"infoHash":"0f03e4bae6b2074d684cfc5902e7ac2063e5e2f2","infoHashBuffer":{"type":"Buffer","data":[15,3,228,186,230,178,7,77,104,76,252,89,2,231,172,32,99,229,226,242]},"announce":[],"urlList":[]}}